name analog
datacolumns 19
datarows 47
range 0.0 0.023
endheader
time	ground_force_vx	ground_force_vy	ground_force_vz	ground_force_px	ground_force_py	ground_force_pz	l_ground_force_vx	l_ground_force_vy	l_ground_force_vz	l_ground_force_px	l_ground_force_py	l_ground_force_pz	ground_torque_x	ground_torque_y	ground_torque_z	l_ground_torque_x	l_ground_torque_y	l_ground_torque_z
0.0	-0.0	-0.0	-0.0	3.8776354789733887	35.9195556640625	-328.9441833496094	-3.1386208534240723	-36.035247802734375	-289.36798095703125	-0.0	-0.0	-0.0	-0.0	-0.0	-0.0	76579.2734375	16295.50390625	-3012.04833984375
0.0005	-0.0	-0.0	-0.0	4.343484878540039	36.022586822509766	-331.1952819824219	-3.091082096099853	-36.09610366821289	-291.0061950683594	-0.0	-0.0	-0.0	-0.0	-0.0	-0.0	76868.328125	16396.765625	-2918.442626953125
0.001	-0.0	-0.0	-0.0	4.089700222015381	36.12575912475586	-328.23590087890625	-3.0632874965667725	-36.27261352539063	-288.67205810546875	-0.0	-0.0	-0.0	-0.0	-0.0	-0.0	76800.0859375	16326.6865234375	-2888.8037109375
0.0015	-0.0	-0.0	-0.0	4.056672096252441	36.18694305419922	-329.1080017089844	-2.75003433227539	-35.919158935546875	-291.5416259765625	-0.0	-0.0	-0.0	-0.0	-0.0	-0.0	76685.3828125	16295.818359375	-2929.16552734375
0.002	-0.0	-0.0	-0.0	4.075442790985107	35.85863494873047	-328.9400939941406	-2.6146111488342285	-36.05388259887695	-288.6747436523437	-0.0	-0.0	-0.0	-0.0	-0.0	-0.0	76478.65625	16198.6083984375	-2888.428955078125
0.0025	-0.0	-0.0	-0.0	4.0042595863342285	36.18694305419922	-327.2133178710937	-2.7035698890686035	-36.211891174316406	-291.08160400390625	-0.0	-0.0	-0.0	-0.0	-0.0	-0.0	76634.8125	16200.6640625	-2913.487548828125
0.003	-0.0	-0.0	-0.0	4.000215530395508	36.47224426269531	-329.46044921875	-3.020063161849976	-36.28226089477539	-289.4467163085937	-0.0	-0.0	-0.0	-0.0	-0.0	-0.0	76613.4453125	16534.509765625	-2918.439453125
0.0035	-0.0	-0.0	-0.0	3.939588069915772	36.00543212890625	-328.0345458984375	-3.2112808227539062	-36.536895751953125	-291.0384826660156	-0.0	-0.0	-0.0	-0.0	-0.0	-0.0	76662.9609375	16261.376953125	-3002.8828125
0.004	-0.0	-0.0	-0.0	4.118092060089111	36.0374755859375	-328.69647216796875	-3.1965811252593994	-36.47686004638672	-289.96453857421875	-0.0	-0.0	-0.0	-0.0	-0.0	-0.0	76613.9453125	16399.068359375	-3077.48974609375
0.0045000000000000005	-0.0	-0.0	-0.0	4.224255084991455	36.09537887573242	-327.7509765625	-3.193588256835937	-36.38853454589844	-290.4377136230469	-0.0	-0.0	-0.0	-0.0	-0.0	-0.0	76720.046875	16515.62890625	-3027.656005859375
0.005	-0.0	-0.0	-0.0	4.014472961425781	36.47087860107422	-329.04864501953125	-3.1071441173553467	-36.55083465576172	-290.7299194335937	-0.0	-0.0	-0.0	-0.0	-0.0	-0.0	76652.3359375	16325.4970703125	-2973.837890625
0.0055	-0.0	-0.0	-0.0	3.745312452316284	35.9195556640625	-328.1620483398437	-2.6450629234313965	-36.10914611816406	-287.40185546875	-0.0	-0.0	-0.0	-0.0	-0.0	-0.0	76458.28125	16359.8115234375	-2972.611328125
0.006	-0.0	-0.0	-0.0	3.96926474571228	36.632598876953125	-326.3963317871094	-3.282299041748047	-36.314697265625	-289.0346069335937	-0.0	-0.0	-0.0	-0.0	-0.0	-0.0	76329.234375	16306.0205078125	-3096.618408203125
0.006500000000000001	-0.0	-0.0	-0.0	3.8198866844177246	36.49925231933594	-329.1081237792969	-2.91187596321106	-36.35940933227539	-289.5042724609375	-0.0	-0.0	-0.0	-0.0	-0.0	-0.0	76606.8671875	16278.0986328125	-3007.374267578125
0.007	-0.0	-0.0	-0.0	4.1033854484558105	36.06790542602539	-329.8125915527344	-2.956843852996826	-36.52128982543945	-288.86407470703125	-0.0	-0.0	-0.0	-0.0	-0.0	-0.0	76196.9296875	16527.857421875	-3012.36083984375
0.0075	-0.0	-0.0	-0.0	3.9698805809021	36.36520385742188	-328.2218017578125	-2.8387451171875	-36.31512069702149	-288.34033203125	-0.0	-0.0	-0.0	-0.0	-0.0	-0.0	76394.46875	16233.5048828125	-3051.919921875
0.008	-0.0	-0.0	-0.0	4.074296474456787	36.39508819580078	-327.8714904785156	-3.2529096603393555	-36.3147087097168	-288.2252197265625	-0.0	-0.0	-0.0	-0.0	-0.0	-0.0	76449.2265625	16317.3544921875	-3012.564453125
0.0085	-0.0	-0.0	-0.0	4.4596781730651855	36.24608612060547	-327.8664855957031	-3.3263583183288574	-36.19707489013672	-291.0166931152344	-0.0	-0.0	-0.0	-0.0	-0.0	-0.0	76741.4375	16333.2060546875	-2982.940673828125
0.009000000000000001	-0.0	-0.0	-0.0	3.955418109893799	36.661468505859375	-327.5718994140625	-3.414865732192993	-36.15234756469727	-289.3329162597656	-0.0	-0.0	-0.0	-0.0	-0.0	-0.0	76649.9375	16201.64453125	-3086.672119140625
0.0095	-0.0	-0.0	-0.0	4.268698692321777	36.03897857666016	-327.9241027832031	-3.474754810333252	-36.27027893066406	-290.02667236328125	-0.0	-0.0	-0.0	-0.0	-0.0	-0.0	76645.6484375	16489.208984375	-3126.408203125
0.01	-0.0	-0.0	-0.0	4.549736022949219	36.528263092041016	-327.7592163085937	-3.076517105102539	-36.31342697143555	-290.14501953125	-0.0	-0.0	-0.0	-0.0	-0.0	-0.0	76747.703125	16540.833984375	-3037.143798828125
0.0105	-0.0	-0.0	-0.0	4.251509189605713	36.482330322265625	-325.9952697753906	-3.297469139099121	-35.99224090576172	-289.7958374023437	-0.0	-0.0	-0.0	-0.0	-0.0	-0.0	76695.8203125	16432.080078125	-3086.401611328125
0.011	-0.0	-0.0	-0.0	4.402046203613281	36.411258697509766	-328.28668212890625	-3.358488082885742	-36.050418853759766	-289.965087890625	-0.0	-0.0	-0.0	-0.0	-0.0	-0.0	76765.0234375	16804.28515625	-3135.552001953125
0.0115	-0.0	-0.0	-0.0	3.9439873695373535	36.27607727050781	-327.7509765625	-3.6218509674072266	-36.023048400878906	-289.97637939453125	-0.0	-0.0	-0.0	-0.0	-0.0	-0.0	76820.296875	16490.583984375	-3091.672607421875
0.012	-0.0	-0.0	-0.0	4.386817455291748	36.43885040283203	-326.2305908203125	-3.5756466388702397	-36.47333908081055	-289.21856689453125	-0.0	-0.0	-0.0	-0.0	-0.0	-0.0	76646.734375	16609.181640625	-3047.821044921875
0.0125	-0.0	-0.0	-0.0	3.715729713439941	36.570430755615234	-326.27667236328125	-3.401863813400269	-36.30021667480469	-290.494140625	-0.0	-0.0	-0.0	-0.0	-0.0	-0.0	76486.015625	16512.81640625	-3131.5224609375
0.013000000000000001	-0.0	-0.0	-0.0	4.045722007751465	36.458866119384766	-326.79718017578125	-3.2090835571289062	-36.00439453125	-289.5076904296875	-0.0	-0.0	-0.0	-0.0	-0.0	-0.0	76664.140625	16515.81640625	-3195.8427734375
0.0135	-0.0	-0.0	-0.0	3.809672355651856	36.51207733154297	-326.1094665527344	-3.4441425800323486	-36.31572723388672	-290.9472045898437	-0.0	-0.0	-0.0	-0.0	-0.0	-0.0	76596.71875	16712.537109375	-3037.40576171875
0.014	-0.0	-0.0	-0.0	4.20865535736084	36.27607727050781	-326.2134704589844	-3.595324993133545	-36.17026138305664	-288.82989501953125	-0.0	-0.0	-0.0	-0.0	-0.0	-0.0	76692.3203125	16676.08203125	-3095.10693359375
0.0145	-0.0	-0.0	-0.0	4.087839126586914	36.55344772338867	-327.04461669921875	-3.256443738937378	-36.5808219909668	-290.14501953125	-0.0	-0.0	-0.0	-0.0	-0.0	-0.0	76564.4296875	16589.060546875	-3150.7412109375
0.015	-0.0	-0.0	-0.0	4.055946350097656	36.374847412109375	-326.3000793457031	-3.380812883377075	-36.3159294128418	-291.5030212402344	-0.0	-0.0	-0.0	-0.0	-0.0	-0.0	76652.0078125	16613.572265625	-3223.900390625
0.0155	-0.0	-0.0	-0.0	4.396662712097168	36.33330154418945	-328.4313049316406	-3.5325968265533447	-36.11407470703125	-290.55645751953125	-0.0	-0.0	-0.0	-0.0	-0.0	-0.0	76958.578125	16600.916015625	-2993.973876953125
0.016	-0.0	-0.0	-0.0	4.128698825836182	36.3812370300293	-327.2352294921875	-3.193588256835937	-36.37945175170898	-290.7806701660156	-0.0	-0.0	-0.0	-0.0	-0.0	-0.0	76492.78125	16406.208984375	-3185.563720703125
0.0165	-0.0	-0.0	-0.0	4.688432216644287	36.13002014160156	-324.85723876953125	-3.355025053024292	-36.25963592529297	-291.0036926269531	-0.0	-0.0	-0.0	-0.0	-0.0	-0.0	76865.4765625	16451.236328125	-3131.66552734375
0.017	-0.0	-0.0	-0.0	3.989943027496338	36.10561752319336	-327.5589294433594	-3.257739543914795	-36.13954162597656	-291.9874267578125	-0.0	-0.0	-0.0	-0.0	-0.0	-0.0	76991.53125	16869.798828125	-3212.69921875
0.0175	-0.0	-0.0	-0.0	4.241653919219971	36.041160583496094	-325.8892822265625	-3.290311336517334	-36.78199768066406	-292.58905029296875	-0.0	-0.0	-0.0	-0.0	-0.0	-0.0	77069.4453125	17116.673828125	-3207.329345703125
0.018000000000000002	-0.0	-0.0	-0.0	4.44421911239624	36.3000373840332	-328.00543212890625	-3.822407484054565	-36.549076080322266	-291.6997985839844	-0.0	-0.0	-0.0	-0.0	-0.0	-0.0	77103.953125	16928.404296875	-3258.821533203125
0.0185	-0.0	-0.0	-0.0	4.216546058654785	36.1378173828125	-327.3978271484375	-3.6134557723999023	-36.78898620605469	-292.23992919921875	-0.0	-0.0	-0.0	-0.0	-0.0	-0.0	77225.5	17024.568359375	-3310.05859375
0.019	-0.0	-0.0	-0.0	4.080303192138672	36.339237213134766	-325.6970520019531	-3.620818614959717	-36.70013046264648	-292.4969177246094	-0.0	-0.0	-0.0	-0.0	-0.0	-0.0	77298.8984375	17187.9921875	-3207.783203125
0.0195	-0.0	-0.0	-0.0	3.99796199798584	36.137454986572266	-327.4505310058594	-3.870521306991577	-36.65350341796875	-292.36883544921875	-0.0	-0.0	-0.0	-0.0	-0.0	-0.0	77242.390625	17111.435546875	-3396.046142578125
0.02	-0.0	-0.0	-0.0	4.076735496520996	35.64592742919922	-325.3034362792969	-3.814563751220703	-36.65988540649414	-292.04559326171875	-0.0	-0.0	-0.0	-0.0	-0.0	-0.0	77403.8828125	17304.125	-3434.396728515625
0.0205	-0.0	-0.0	-0.0	3.813490867614746	35.791236877441406	-325.30206298828125	-4.192008972167969	-36.63704681396485	-292.938232421875	-0.0	-0.0	-0.0	-0.0	-0.0	-0.0	77361.734375	17272.59765625	-3494.032958984375
0.021	-0.0	-0.0	-0.0	4.142747402191162	36.1368408203125	-326.9346008300781	-4.163596630096436	-36.4050407409668	-291.7373962402344	-0.0	-0.0	-0.0	-0.0	-0.0	-0.0	77360.3828125	17331.96875	-3453.236572265625
0.021500000000000002	-0.0	-0.0	-0.0	4.053287506103516	35.59659957885742	-327.1111145019531	-4.136081695556641	-36.935054779052734	-294.072509765625	-0.0	-0.0	-0.0	-0.0	-0.0	-0.0	77325.40625	17661.15625	-3520.05615234375
0.022	-0.0	-0.0	-0.0	3.97581958770752	35.45212173461914	-325.2787475585937	-4.130844593048096	-36.86853790283203	-294.137451171875	-0.0	-0.0	-0.0	-0.0	-0.0	-0.0	77453.8515625	17552.572265625	-3434.846435546875
0.0225	-0.0	-0.0	-0.0	3.729905843734741	35.92407989501953	-325.8510131835937	-4.291715145111084	-36.868289947509766	-294.3533935546875	-0.0	-0.0	-0.0	-0.0	-0.0	-0.0	77504.0546875	17776.529296875	-3499.96142578125
0.023	-0.0	-0.0	-0.0	3.929455757141113	35.50787734985352	-324.5723876953125	-4.325582981109619	-36.762977600097656	-293.7864990234375	-0.0	-0.0	-0.0	-0.0	-0.0	-0.0	77818.8671875	17904.87890625	-3572.098876953125
